<svg xmlns="http://www.w3.org/2000/svg" width="209" height="76" viewBox="0 0 209 76">
    <g fill="none" fill-rule="evenodd">
        <path stroke="#FFF" d="M48.541.5h111.028v74H48.541z"/>
        <path fill="#FFF" d="M107.94 43.714h-7.038v-1.047l2.82-2.835c.86-.869 1.426-1.489 1.699-1.86.273-.371.478-.732.615-1.084.137-.351.205-.73.205-1.135 0-.571-.173-1.024-.52-1.359-.346-.334-.827-.501-1.443-.501-.444 0-.865.073-1.263.22-.398.146-.841.412-1.33.798l-.644-.828c.986-.82 2.06-1.23 3.223-1.23 1.006 0 1.794.257 2.365.772.572.515.857 1.207.857 2.077 0 .678-.19 1.35-.57 2.014-.382.664-1.095 1.504-2.14 2.52l-2.343 2.292v.058h5.507v1.128zM14.071 43.714h-1.186v-7.632c0-.634.02-1.235.058-1.801-.102.102-.217.21-.344.322-.127.112-.708.588-1.743 1.428l-.645-.835 2.835-2.19h1.025v10.708zM196.732 35.526c0 .683-.192 1.242-.575 1.677-.383.435-.926.725-1.63.872v.058c.86.108 1.497.381 1.912.82.415.44.623 1.016.623 1.73 0 1.02-.354 1.804-1.062 2.354-.708.55-1.714.824-3.018.824a8.745 8.745 0 0 1-1.556-.128 5.326 5.326 0 0 1-1.374-.45v-1.158c.464.23.959.404 1.484.524.524.12 1.021.18 1.49.18 1.85 0 2.776-.726 2.776-2.176 0-1.3-1.02-1.948-3.062-1.948h-1.054v-1.048h1.069c.835 0 1.497-.184 1.985-.553.488-.368.732-.88.732-1.534 0-.523-.18-.933-.538-1.23-.359-.299-.846-.447-1.461-.447-.469 0-.91.063-1.326.19-.415.127-.889.361-1.42.703l-.616-.82a5.13 5.13 0 0 1 1.52-.817 5.524 5.524 0 0 1 1.812-.297c1.04 0 1.849.239 2.425.715.576.476.864 1.129.864 1.959z"/>
        <path stroke="#FFF" d="M0 1h36.11v73.785H0M208.11 74.785H172V1h36.11"/>
    </g>
</svg>
