<svg xmlns="http://www.w3.org/2000/svg" width="112" height="111" viewBox="0 0 112 111">
    <g fill="#FFF" fill-rule="nonzero">
        <path d="M56.335 8.65L56.788 0l3.571.126-.05 1.134-1.962-.084-.1 2.31 1.86.083-.05 1.134-1.86-.084-.202 4.074zM63.042 9.152L64.796.67l1.6.209L64.64 9.36zM71.972 11.1c-.435.295-.958.337-1.568.17-.653-.211-1.045-.548-1.219-1.052-.174-.505-.13-1.135.087-1.892l1.176-3.616c.392-1.22 1.001-1.893 1.742-2.019.305-.042.61 0 .958.084 1.219.379 1.567 1.262 1.088 2.733l-.348 1.136-1.263-.379.348-1.05c.131-.421.218-.758.175-.968 0-.21-.131-.336-.349-.42-.217-.085-.392 0-.566.168-.174.168-.305.462-.435.84l-1.263 3.87c-.13.462-.218.756-.174 1.008 0 .21.13.337.348.42.218.085.392 0 .523-.167.13-.169.305-.463.435-.925l.392-1.178 1.263.379-.392 1.177c-.218.84-.566 1.388-.958 1.682zM75.114 13.552l3.943-8.203 1.187.624-1.569 3.344 1.06.58 1.569-3.344 1.187.624-3.943 8.203-1.187-.625 1.823-3.833-1.06-.58-1.823 3.834zM82.491 16.886l5.03-7.525 2.347 1.792-.67.986-1.3-.986-1.467 2.195 1.216.94-.629.986-1.216-.94-1.592 2.373 1.34 1.03-.67.986zM94.855 22.443l-.259-.34-3.194 2.684-.863-1.023 6.776-5.71 1.468 1.662c.302.341.474.682.474.98 0 .298-.086.554-.302.852-.215.299-.518.597-.95.938-.43.34-.776.554-1.035.682-.259.127-.561.042-.863-.128.172.255.13.554-.043.895-.216.34-.734.852-1.597 1.576-.864.725-1.338 1.15-1.382 1.236l-.863-1.023c.043-.085.82-.767 2.374-2.088.302-.255.475-.468.518-.596 0-.213-.086-.384-.259-.597zm.518-1.022l.345.426c.13.127.216.213.346.213.129 0 .259-.043.431-.128.173-.085.389-.256.69-.511l.044-.043c.345-.298.561-.554.647-.682.087-.128 0-.34-.215-.554l-.303-.34-1.985 1.619zM95.234 29.603l7.763-4.53 1.641 2.452-1.02.582-.887-1.33-2.263 1.33.843 1.247-.976.581-.843-1.246-2.484 1.454.932 1.372-1.02.581-1.686-2.493zm8.65-4.446l.71-.416 2.04 1.33-1.153.665-1.597-1.58zM99.895 38.069c-.517-.118-.861-.432-1.12-.981-.258-.55-.258-1.02.044-1.453.258-.431.775-.785 1.55-1.099l3.573-1.413c1.205-.47 2.11-.47 2.67-.039.214.157.387.393.516.707.473 1.06 0 1.844-1.421 2.433l-1.12.432-.516-1.1 1.033-.392c.43-.157.69-.314.861-.431a.39.39 0 0 0 .086-.471c-.086-.197-.258-.275-.473-.275-.215 0-.517.078-.947.235l-3.789 1.492c-.43.157-.732.314-.904.47-.172.158-.172.315-.086.511s.258.275.473.275c.216 0 .56-.079.99-.275l1.163-.47.517 1.098-1.163.471c-.818.275-1.464.393-1.937.275zM100.599 41.762l8.956-.973.433 1.769-8.307 3.58-.303-1.237 1.47-.62-.345-1.414-1.601.221-.303-1.326zm3.288 2.122l4.197-1.724-4.5.574.303 1.15zM102.61 50.42l9.202-.938.18 2.32c.045.791-.09 1.334-.539 1.68-.404.346-1.032.543-1.93.642h-.18c-.897.099-1.615 0-2.109-.198-.494-.197-.763-.74-.853-1.53l-.09-.84-3.635.346-.045-1.482zm4.938 1.087l.045.543c.045.346.18.543.404.592.224.05.673.1 1.302 0h.18c.538-.049.942-.148 1.166-.296.225-.148.314-.346.314-.642l-.044-.543-3.367.346zM102.653 57.506l8.676.451-.042 1.555-8.676-.451zM102.16 62.855l7.803 1.338.176-1.107 1.19.184-.573 3.597-1.19-.184.176-1.06-7.802-1.338zM100.826 71.87c-.262-.437-.306-.962-.088-1.619.219-.657.568-1.094 1.004-1.27.48-.175 1.09-.13 1.876.088l6.37 2.058-.436 1.313-6.37-2.058c-.437-.13-.742-.218-.83-.218a.807.807 0 0 0-.305.087c-.087.044-.174.131-.218.35-.043.175-.043.35.044.438a.679.679 0 0 0 .349.263c.174.087.349.131.61.219l6.37 2.057-.436 1.314-6.37-2.058c-.785-.175-1.308-.525-1.57-.963zM97.96 74.892l8.004 4.09-.606 1.259-6.966-3.596-.779 1.618-1.038-.54zM95.802 80.91l6.809 5.934-1.068 1.421-8.321-3.845.756-1.003 1.468.71.846-1.128-1.246-1.045.756-1.044zm.623 3.677l4.139 2.006-3.471-2.883-.668.877zM90.767 86.928l5.608 4.985.685-.735.856.735-2.269 2.37-.856-.735.685-.695-5.608-4.985zM86.199 90.94l5.681 6.529-1.025.826-5.681-6.487zM81.868 94.283l5.988 6.966-1.085.71-2.647-3.15-1.822-2.263h-.044l1.259 2.618 1.779 3.77-1.085.71-3.732-8.43zM75.735 97.627l3.403 8.153-2.552 1.208-.446-1.079 1.377-.647-.972-2.372-1.337.647-.445-1.036 1.337-.647-1.094-2.588-1.459.69-.445-1.078zM66.884 104.982l.182.891-2.5.446-.183-.891zM54.994 102.35l-.34 8.65-3.013-.126.042-1.134 1.656.084.084-2.31-1.57-.042.042-1.133 1.57.042.17-4.074zM49.629 101.848l-1.754 8.483-1.6-.209 1.754-8.483zM40.699 100.568c.435-.295.958-.337 1.567-.168.61.168 1.045.546 1.22 1.05.174.505.13 1.136-.088 1.893l-1.175 3.616c-.392 1.22-.958 1.892-1.742 2.018-.305.043-.61 0-.958-.084-1.22-.378-1.567-1.261-1.089-2.733l.349-1.135 1.263.378-.349 1.052c-.13.42-.218.756-.174.967 0 .21.13.336.348.42.218.084.392 0 .566-.168.131-.168.305-.463.436-.841l1.263-3.868c.13-.463.217-.757.174-1.01-.044-.252-.13-.336-.349-.42-.217-.084-.392 0-.522.168s-.305.463-.436.925l-.391 1.178-1.263-.379.392-1.177c.217-.841.522-1.388.958-1.682zM36.216 98.109l-3.924 8.21-1.194-.621 1.578-3.329-1.066-.577-1.578 3.329-1.194-.621 3.923-8.21 1.194.62-1.833 3.817 1.066.577 1.834-3.817zM29.509 94.818l-5.017 7.49-2.36-1.784.674-.98 1.307.98 1.476-2.184-1.223-.936.632-.981 1.223.936 1.602-2.407-1.35-1.025.675-.981zM17.123 88.557l.26.34 3.21-2.684.868 1.023-6.767 5.71-1.474-1.662c-.304-.341-.477-.682-.477-.98 0-.298.086-.554.303-.852.217-.299.52-.597.911-.938.39-.34.78-.554 1.041-.682.304-.085.564-.042.868.128-.174-.255-.13-.554.043-.895.217-.34.737-.852 1.605-1.576.867-.725 1.345-1.15 1.388-1.236l.867 1.023c-.043.085-.824.767-2.385 2.088-.304.255-.477.468-.52.596 0 .213.086.384.26.597zm-.563 1.022l-.347-.426c-.13-.127-.217-.213-.347-.213-.13 0-.26.043-.434.128s-.39.256-.694.511l-.044.043c-.347.298-.563.554-.65.682-.044.17 0 .34.217.554l.303.34 1.996-1.619zM8.093 85.846l-.671.413-2.057-1.322 1.163-.661 1.565 1.57zm8.673-4.463l-7.824 4.504-1.654-2.438 1.028-.578.894 1.322 2.28-1.322-.849-1.24.984-.579.85 1.24 2.503-1.446-.939-1.364 1.028-.578 1.7 2.479zM12.048 72.93c.52.118.867.432 1.17.982.26.55.26 1.02 0 1.452-.26.432-.78.785-1.56 1.1l-3.553 1.413c-1.214.47-2.124.47-2.687.039-.217-.157-.39-.393-.52-.707-.52-1.06-.043-1.845 1.43-2.434l1.127-.431.52 1.099-1.04.392c-.434.157-.694.314-.867.471a.389.389 0 0 0-.087.471c.087.197.26.275.477.275.217 0 .52-.078.953-.235l3.814-1.492c.433-.157.736-.314.91-.471.173-.157.173-.314.086-.51-.086-.197-.26-.275-.476-.275-.217 0-.564.078-.997.275l-1.17.47-.52-1.099 1.17-.47c.693-.315 1.343-.432 1.82-.315zM11.401 69.194l-8.956 1.017-.433-1.769 8.307-3.58.303 1.237-1.47.62.345 1.414 1.601-.221.303 1.282zm-3.288-2.078L3.916 68.84l4.456-.574-.26-1.15zM10.06 62.586l-9.202.938-.18-2.32c-.044-.791.09-1.334.495-1.68.404-.346 1.032-.543 1.885-.642h.18c.897-.099 1.615 0 2.109.198.494.247.763.74.853 1.53l.09.84 3.635-.395.135 1.53zm-4.893-1.037l-.044-.543c-.045-.346-.18-.544-.404-.593-.225-.099-.674-.099-1.302 0h-.18c-.538.05-.942.148-1.167.296-.224.148-.314.346-.314.642l.045.543 3.366-.345zM8.676 54.831L0 54.42l.042-1.595 8.677.412zM9.84 49.482l-7.803-1.337-.176 1.106-1.19-.184.573-3.597 1.19.184-.176 1.061 7.802 1.337zM11.174 40.111c.262.392.306.863.088 1.45-.219.589-.568.98-1.004 1.137-.436.157-1.09.118-1.876-.078l-6.37-1.803.393-1.176 6.37 1.803c.436.118.741.196.829.196.13 0 .218-.04.305-.078.087-.04.175-.118.218-.314.044-.157.044-.314-.043-.392a.677.677 0 0 0-.35-.235c-.174-.079-.349-.118-.61-.196l-6.37-1.803.392-1.176 6.37 1.803c.83.196 1.353.51 1.658.862zM13.37 36.108l-8.005-4.09.606-1.259 6.966 3.551.78-1.618 1.037.54zM16.165 30.759L9.39 24.833l1.063-1.43 8.326 3.825-.752 1.01-1.462-.715-.841 1.134 1.24 1.051-.798 1.051zm-.62-3.74l-4.118-1.976 3.454 2.9.664-.925zM21.238 24.072l-5.621-4.985-.682.735-.851-.735 2.257-2.37.851.735-.681.695 5.62 4.945zM25.137 20.729l-5.688-6.524 1.019-.832 5.688 6.525zM30.097 16.717l-5.953-6.954 1.078-.714 2.675 3.165 1.812 2.274h.043l-1.251-2.63-1.769-3.79 1.079-.713 3.71 8.47zM35.594 14.042l-3.402-8.148 2.552-1.213.445 1.083-1.377.65.972 2.384 1.337-.65.446 1.04-1.337.65 1.094 2.6 1.458-.693.446 1.084zM45.116 6.687l-.182-.863 2.5-.475.183.863z"/>
    </g>
</svg>
