<svg xmlns="http://www.w3.org/2000/svg" width="19" height="14" viewBox="0 0 19 14">
    <path fill="#FFF" fill-rule="nonzero" d="M17.323 7.135C12.013-.311 6.95-.311 1.677 7.132c5.305 7.09 10.379 7.09 15.646.003zM.547 6.829c5.866-8.505 12-8.505 17.905-.002l.222.32-.228.316C12.58 15.58 6.462 15.58.556 7.465l-.23-.315.221-.321zm8.953 3.38c-1.599 0-2.868-1.423-2.868-3.148S7.902 3.913 9.5 3.913c1.599 0 2.868 1.423 2.868 3.148s-1.27 3.147-2.868 3.147zm0-1.1c.962 0 1.768-.904 1.768-2.048 0-1.144-.806-2.048-1.768-2.048s-1.768.904-1.768 2.048c0 1.144.806 2.047 1.768 2.047z"/>
</svg>
